<svg width="420" height="260" viewBox="0 0 420 260" fill="none" xmlns="http://www.w3.org/2000/svg">
  <rect width="420" height="260" rx="24" fill="#04050A"/>
  <rect x="12" y="12" width="396" height="236" rx="20" fill="url(#paint0_linear)" stroke="rgba(255,255,255,0.08)" stroke-width="2"/>
  <g filter="url(#glow)">
    <rect x="40" y="48" width="340" height="164" rx="26" fill="#070B15" stroke="#17FFDC" stroke-width="1.4"/>
    <rect x="68" y="80" width="128" height="12" rx="6" fill="#17FFDC"/>
    <rect x="68" y="108" width="168" height="10" rx="5" fill="#FF9F40" opacity="0.8"/>
    <rect x="68" y="134" width="120" height="10" rx="5" fill="#6E6E6E" opacity="0.8"/>
    <rect x="236" y="80" width="116" height="12" rx="6" fill="#6E6E6E" opacity="0.9"/>
    <rect x="236" y="108" width="116" height="12" rx="6" fill="#17FFDC" opacity="0.7"/>
    <g>
      <rect x="236" y="148" width="116" height="48" rx="14" fill="#0D1224" stroke="#2CE0B9"/>
      <path d="M256 172H332" stroke="#17FFDC" stroke-width="4" stroke-linecap="round"/>
      <path d="M256 160H312" stroke="#FF9F40" stroke-width="4" stroke-linecap="round"/>
    </g>
    <g transform="translate(68 168)">
      <rect width="144" height="44" rx="12" fill="#121833" stroke="#FF9F40" stroke-width="1.2"/>
      <path d="M20 22H120" stroke="#FF9F40" stroke-width="3" stroke-linecap="round"/>
      <path d="M32 14L52 30" stroke="#17FFDC" stroke-width="3" stroke-linecap="round"/>
      <path d="M52 14L32 30" stroke="#17FFDC" stroke-width="3" stroke-linecap="round"/>
    </g>
  </g>
  <defs>
    <linearGradient id="paint0_linear" x1="12" y1="12" x2="408" y2="248" gradientUnits="userSpaceOnUse">
      <stop stop-color="#060B14"/>
      <stop offset="1" stop-color="#10101A"/>
    </linearGradient>
    <filter id="glow" x="28" y="36" width="364" height="188" filterUnits="userSpaceOnUse" color-interpolation-filters="sRGB">
      <feFlood flood-opacity="0" result="BackgroundImageFix"/>
      <feGaussianBlur in="BackgroundImage" stdDeviation="7"/>
      <feComposite in2="SourceAlpha" operator="in" result="effect0_backgroundBlur"/>
      <feOffset/>
      <feGaussianBlur stdDeviation="10"/>
      <feColorMatrix type="matrix" values="0 0 0 0 0.09 0 0 0 0 0.9 0 0 0 0 0.8 0 0 0 0.4 0"/>
      <feBlend mode="normal" in2="effect0_backgroundBlur" result="effect1_dropShadow"/>
      <feBlend mode="normal" in="SourceGraphic" in2="effect1_dropShadow" result="shape"/>
    </filter>
  </defs>
</svg>
