<svg width="420" height="260" viewBox="0 0 420 260" fill="none" xmlns="http://www.w3.org/2000/svg">
  <rect width="420" height="260" rx="24" fill="#04060A"/>
  <rect x="12" y="12" width="396" height="236" rx="20" fill="url(#paint0_linear)" stroke="rgba(255,255,255,0.08)" stroke-width="2"/>
  <rect x="40" y="52" width="200" height="12" rx="6" fill="#17FFDC" opacity="0.85"/>
  <rect x="40" y="76" width="140" height="10" rx="5" fill="#6E6E6E" opacity="0.7"/>
  <g>
    <rect x="40" y="108" width="340" height="120" rx="20" fill="#0B101F" stroke="#2CE0B9" stroke-width="1.3"/>
    <path d="M72 208C84 180 116 166 158 174C200 182 220 158 252 150C284 142 328 158 348 200" stroke="#17FFDC" stroke-width="4" stroke-linecap="round" stroke-dasharray="6 10"/>
    <circle cx="126" cy="188" r="18" fill="#17FFDC" fill-opacity="0.15" stroke="#17FFDC" stroke-width="1.4"/>
    <circle cx="206" cy="164" r="18" fill="#FF9F40" fill-opacity="0.15" stroke="#FF9F40" stroke-width="1.4"/>
    <circle cx="300" cy="188" r="18" fill="#17FFDC" fill-opacity="0.15" stroke="#17FFDC" stroke-width="1.4"/>
    <path d="M120 146H188" stroke="#FF9F40" stroke-width="4" stroke-linecap="round"/>
    <path d="M220 146H320" stroke="#17FFDC" stroke-width="4" stroke-linecap="round"/>
  </g>
  <defs>
    <linearGradient id="paint0_linear" x1="12" y1="12" x2="408" y2="248" gradientUnits="userSpaceOnUse">
      <stop stop-color="#050B15"/>
      <stop offset="1" stop-color="#0D111C"/>
    </linearGradient>
  </defs>
</svg>
