<svg width="420" height="260" viewBox="0 0 420 260" fill="none" xmlns="http://www.w3.org/2000/svg">
  <rect width="420" height="260" rx="24" fill="#05060A"/>
  <rect x="12" y="12" width="396" height="236" rx="20" fill="url(#paint0_linear)" stroke="rgba(255,255,255,0.08)" stroke-width="2"/>
  <rect x="36" y="52" width="160" height="12" rx="6" fill="#17FFDC" opacity="0.8"/>
  <rect x="36" y="80" width="104" height="12" rx="6" fill="#FF9F40" opacity="0.8"/>
  <g opacity="0.8">
    <rect x="36" y="116" width="140" height="96" rx="16" fill="#0D1224" stroke="#17FFDC" stroke-width="1.2"/>
    <rect x="56" y="136" width="36" height="12" rx="6" fill="#17FFDC"/>
    <rect x="56" y="160" width="88" height="8" rx="4" fill="#17FFDC" fill-opacity="0.4"/>
    <rect x="56" y="180" width="92" height="8" rx="4" fill="#17FFDC" fill-opacity="0.4"/>
  </g>
  <g opacity="0.9">
    <rect x="212" y="116" width="172" height="96" rx="16" fill="#0A0F1F" stroke="#2CE0B9" stroke-width="1.2"/>
    <path d="M244 150C256 138 276 138 288 150C300 162 320 162 332 150" stroke="#FF9F40" stroke-width="4" stroke-linecap="round"/>
    <path d="M244 170C256 158 276 158 288 170C300 182 320 182 332 170" stroke="#17FFDC" stroke-width="4" stroke-linecap="round"/>
    <circle cx="256" cy="134" r="10" fill="#17FFDC" fill-opacity="0.3" stroke="#17FFDC"/>
    <circle cx="320" cy="134" r="10" fill="#FF9F40" fill-opacity="0.3" stroke="#FF9F40"/>
  </g>
  <defs>
    <linearGradient id="paint0_linear" x1="12" y1="12" x2="408" y2="248" gradientUnits="userSpaceOnUse">
      <stop stop-color="#050B15"/>
      <stop offset="1" stop-color="#0F0F17"/>
    </linearGradient>
  </defs>
</svg>
